Coordinates
version=1
nRows=19
nColumns=63
inDegrees=yes

Units are S.I. units (second, meters, Newtons, ...)
If the header above contains a line with 'inDegrees', this indicates whether rotational values are in degrees (yes) or radians (no).

endheader
time	pelvis_tilt	pelvis_list	pelvis_rotation	pelvis_tx	pelvis_ty	pelvis_tz	hip_flexion_r	hip_adduction_r	hip_rotation_r	knee_angle_r	knee_angle_r_beta	ankle_angle_r	subtalar_angle_r	mtp_angle_r	hip_flexion_l	hip_adduction_l	hip_rotation_l	knee_angle_l	knee_angle_l_beta	ankle_angle_l	subtalar_angle_l	mtp_angle_l	L5_S1_Flex_Ext	L5_S1_Lat_Bending	L5_S1_axial_rotation	L4_L5_Flex_Ext	L4_L5_Lat_Bending	L4_L5_axial_rotation	L3_L4_Flex_Ext	L3_L4_Lat_Bending	L3_L4_axial_rotation	L2_L3_Flex_Ext	L2_L3_Lat_Bending	L2_L3_axial_rotation	L1_L2_Flex_Ext	L1_L2_Lat_Bending	L1_L2_axial_rotation	L1_T12_Flex_Ext	L1_T12_Lat_Bending	L1_T12_axial_rotation	Abs_r3	Abs_r2	Abs_r1	Abs_t1	Abs_t2	neck_flexion	neck_bending	neck_rotation	arm_flex_r	arm_add_r	arm_rot_r	elbow_flex_r	pro_sup_r	wrist_flex_r	wrist_dev_r	arm_flex_l	arm_add_l	arm_rot_l	elbow_flex_l	pro_sup_l	wrist_flex_l	wrist_dev_l
0.000000	0.085467	-3.361176	106.632650	0.242707	0.499771	0.809714	-5.590793	1.486069	-12.311369	8.153205	0.142300	23.781476	-6.001381	0.000000	-3.938028	-0.324797	13.657464	5.320012	0.092852	26.007961	3.725132	0.000000	0.029469	0.100756	-2.616443	0.054727	0.134005	-2.779970	0.048415	0.244977	-2.779970	0.033680	0.244977	-2.289387	0.027365	0.205461	-2.125860	0.016839	0.156070	-1.962332	0.210496	1.139767	-14.551870	0.000000	0.000000	18.351093	0.705214	4.975478	23.328747	-6.202197	54.303595	45.333744	92.307819	4.854945	12.399624	16.754366	-3.151216	34.858932	44.585385	79.820526	-8.423363	14.502882
0.017857	-0.490513	-4.105671	104.802233	0.245822	0.498327	0.813432	-4.229586	0.549891	-9.930624	8.729217	0.152354	24.376674	-6.510753	0.000000	-2.624400	0.544304	11.364437	6.389107	0.111511	26.659186	4.573617	0.000000	0.041327	0.037353	-2.139857	0.076749	0.049679	-2.273598	0.067896	0.090820	-2.273598	0.047233	0.090820	-1.872375	0.038376	0.076170	-1.738634	0.023614	0.057860	-1.604893	0.295196	0.422544	-11.901243	0.000000	0.000000	20.054925	0.362149	4.591932	21.791624	-4.970080	54.866971	42.822257	85.494578	3.305344	9.548939	17.763569	-3.417631	42.963255	42.027789	83.400463	-5.605138	14.742347
0.035714	-0.970763	-4.748122	103.292470	0.248343	0.497099	0.816583	-3.110094	-0.234318	-7.944505	9.150115	0.159700	24.807359	-6.969672	0.000000	-1.529056	1.277029	9.593692	7.225759	0.126113	27.133325	5.155965	0.000000	0.053287	-0.015441	-1.755742	0.098960	-0.020537	-1.865476	0.087545	-0.037544	-1.865476	0.060902	-0.037544	-1.536274	0.049482	-0.031488	-1.426540	0.030448	-0.023919	-1.316806	0.380625	-0.174677	-9.764910	0.000000	0.000000	21.535934	0.136231	4.338642	20.667585	-4.102171	55.728216	40.796750	80.284683	2.171877	7.521571	18.538944	-3.741790	49.367989	40.306634	86.117372	-3.092397	15.131961
0.053571	-1.364182	-5.296094	102.072981	0.250334	0.496074	0.819221	-2.209473	-0.880162	-6.321119	9.433262	0.164641	25.092397	-7.374862	0.000000	-0.635047	1.884872	8.290822	7.848675	0.136985	27.444055	5.499097	0.000000	0.065032	-0.058775	-1.456182	0.120770	-0.078171	-1.547193	0.106840	-0.142906	-1.547193	0.074325	-0.142906	-1.274159	0.060388	-0.119854	-1.183148	0.037159	-0.091042	-1.092136	0.464515	-0.664874	-8.098845	0.000000	0.000000	22.802083	0.016898	4.198617	19.921497	-3.560045	56.799094	39.279808	76.524857	1.425231	6.245841	19.102014	-4.118655	54.219785	39.327997	88.060596	-0.893929	15.626452
0.071429	-1.679672	-5.757153	101.113381	0.251857	0.495242	0.821400	-1.504877	-1.401244	-5.028576	9.596023	0.167482	25.250651	-7.723049	0.000000	0.074580	2.379323	7.401418	8.276562	0.144453	27.605053	5.629928	0.000000	0.076243	-0.093795	-1.233261	0.141591	-0.124747	-1.310339	0.125260	-0.228053	-1.310339	0.087138	-0.228053	-1.079103	0.070799	-0.191266	-1.002024	0.043565	-0.145288	-0.924945	0.544598	-1.061025	-6.859025	0.000000	0.000000	23.861336	-0.006406	4.154869	19.518229	-3.305276	57.991372	38.294010	74.061822	1.036090	5.650071	19.474304	-4.543187	57.665298	38.997957	89.319476	0.981478	16.180548
0.089286	-1.926133	-6.138864	100.383289	0.252974	0.494589	0.823174	-0.973463	-1.811170	-4.034982	9.655763	0.168525	25.300986	-8.010958	0.000000	0.616774	2.771874	6.871071	8.528126	0.148844	27.629994	5.575377	0.000000	0.086605	-0.121648	-1.079063	0.160833	-0.161792	-1.146504	0.142283	-0.295775	-1.146504	0.098980	-0.295775	-0.944180	0.080421	-0.248064	-0.876739	0.049486	-0.188433	-0.809297	0.618608	-1.376105	-6.001425	0.000000	0.000000	24.721655	0.055758	4.190408	19.422648	-3.299438	59.216815	37.861941	72.742299	0.975139	5.662582	19.677337	-5.010349	59.851180	39.222590	89.983355	2.525037	16.748977
0.107143	-2.112464	-6.448792	99.852323	0.253747	0.494106	0.824597	-0.592384	-2.123542	-3.308446	9.629845	0.168073	25.262267	-8.235314	0.000000	1.008486	3.074016	6.645375	8.622074	0.150484	27.532554	5.362363	0.000000	0.095798	-0.143482	-0.985673	0.177907	-0.190831	-1.047278	0.157387	-0.348861	-1.047278	0.109488	-0.348861	-0.862464	0.088958	-0.292588	-0.800860	0.054739	-0.222253	-0.739255	0.684276	-1.623094	-5.482020	0.000000	0.000000	25.391004	0.192832	4.288245	19.599622	-3.504106	60.387190	38.006183	72.413010	1.213062	6.211693	19.732636	-5.515101	60.924086	39.907975	90.141576	3.727959	17.286469
0.125000	-2.247566	-6.694504	99.490101	0.254239	0.493780	0.825723	-0.338798	-2.351965	-2.817076	9.535634	0.166428	25.153357	-8.392842	0.000000	1.266667	3.297241	6.669920	8.577112	0.149699	27.326411	5.017802	0.000000	0.103506	-0.160443	-0.945176	0.192222	-0.213390	-1.004250	0.170051	-0.390102	-1.004250	0.118297	-0.390102	-0.827029	0.096116	-0.327176	-0.767956	0.059144	-0.248527	-0.708882	0.739335	-1.814967	-5.256786	0.000000	0.000000	25.877346	0.394256	4.431389	20.014019	-3.880855	61.414261	38.749317	72.920677	1.720546	7.225726	19.661725	-6.052407	61.030669	40.960189	89.883479	4.581458	17.747751
0.142857	-2.340340	-6.883564	99.266240	0.254512	0.493598	0.826606	-0.189858	-2.510043	-2.528980	9.390495	0.163895	24.993122	-8.480268	0.000000	1.408267	3.453040	6.890299	8.411948	0.146816	27.025241	4.568613	0.000000	0.109412	-0.173680	-0.949655	0.203189	-0.230994	-1.009009	0.179753	-0.422285	-1.009009	0.125047	-0.422285	-0.830948	0.101600	-0.354168	-0.771595	0.062518	-0.269030	-0.712242	0.781518	-1.964702	-5.281698	0.000000	0.000000	26.188645	0.649471	4.602852	20.630705	-4.391258	62.209794	40.113926	74.112023	2.468274	8.633002	19.486128	-6.617227	60.317582	42.285311	89.298408	5.076745	18.087553
0.160714	-2.399686	-7.023537	99.150358	0.254628	0.493551	0.827300	-0.122720	-2.611380	-2.412265	9.211790	0.160776	24.800425	-8.494316	0.000000	1.450238	3.552905	7.252104	8.145288	0.142162	26.642720	4.041713	0.000000	0.113197	-0.184339	-0.991196	0.210219	-0.245170	-1.053145	0.185972	-0.448201	-1.053145	0.129373	-0.448201	-0.867296	0.105115	-0.375903	-0.805346	0.064681	-0.285541	-0.743397	0.808558	-2.085276	-5.512732	0.000000	0.000000	26.332863	0.947919	4.785643	21.414550	-4.996890	62.685556	42.122593	75.833770	3.426932	10.361841	19.227368	-7.204523	58.931478	43.789416	88.475705	5.205033	18.260602
0.178571	-2.434505	-7.121990	99.112073	0.254650	0.493625	0.827859	-0.114539	-2.669579	-2.435040	9.016886	0.157374	24.594131	-8.431712	0.000000	1.409529	3.608327	7.700927	7.795838	0.136063	26.192524	3.464021	0.000000	0.114545	-0.193567	-1.061881	0.212722	-0.257444	-1.128249	0.188187	-0.470638	-1.128249	0.130914	-0.470638	-0.929146	0.106367	-0.394722	-0.862778	0.065451	-0.299835	-0.796411	0.818186	-2.189667	-5.905864	0.000000	0.000000	26.317965	1.279041	4.962773	22.330420	-5.659325	62.753311	44.797899	77.932639	4.567204	12.340565	18.906968	-7.809258	57.019011	45.378584	87.504713	4.957533	18.221628
0.196429	-2.471233	-7.189809	99.084103	0.254742	0.493841	0.828426	-0.117505	-2.718878	-2.599128	8.855623	0.154560	24.410262	-8.185471	0.000000	1.312878	3.641147	8.097762	7.393145	0.129035	25.665530	2.888170	0.000000	0.111659	-0.204816	-1.143061	0.207361	-0.272405	-1.214502	0.183444	-0.497988	-1.214502	0.127615	-0.497988	-1.000178	0.103686	-0.417660	-0.928737	0.063802	-0.317259	-0.857295	0.797567	-2.316914	-6.357360	0.000000	0.000000	26.162590	1.648795	5.095222	23.123364	-6.354429	61.704105	48.793208	78.906198	5.816858	14.702699	18.655126	-8.429818	55.133397	46.806908	86.636218	4.241760	17.828912
0.214286	-2.501655	-7.229804	99.027825	0.254944	0.494181	0.829022	-0.112407	-2.759068	-2.733943	8.733980	0.152437	24.277725	-7.930725	0.000000	1.167112	3.657946	8.324399	6.953830	0.121367	25.114318	2.394227	0.000000	0.104745	-0.217758	-1.234224	0.194521	-0.289618	-1.311363	0.172085	-0.529457	-1.311363	0.119713	-0.529457	-1.079946	0.097266	-0.444052	-1.002807	0.059851	-0.337307	-0.925668	0.748181	-2.463321	-6.864383	0.000000	0.000000	25.769756	2.009199	5.133553	23.965974	-6.943737	59.899802	53.539602	80.602979	7.142125	16.917956	18.390052	-9.047304	52.962382	48.008064	86.068257	2.976230	16.892018
0.232143	-2.527111	-7.243555	98.987956	0.255188	0.494622	0.829657	-0.121575	-2.796536	-2.935143	8.620735	0.150460	24.207871	-7.587020	0.000000	0.982670	3.662114	8.483349	6.496766	0.113390	24.547216	1.944072	0.000000	0.093272	-0.231179	-1.341182	0.173215	-0.307468	-1.425006	0.153236	-0.562088	-1.425006	0.106600	-0.562088	-1.173534	0.086612	-0.471420	-1.089710	0.053295	-0.358096	-1.005887	0.666230	-2.615141	-7.459253	0.000000	0.000000	25.152990	2.342291	5.183775	24.855659	-7.422789	57.511654	58.981974	82.570202	8.410219	18.984971	18.126146	-9.675452	50.772806	48.915322	85.680039	1.069552	15.400690
0.250000	-2.573671	-7.261672	98.883594	0.255625	0.495095	0.830415	-0.062956	-2.861335	-3.138738	8.584804	0.149833	24.228050	-7.135688	0.000000	0.802275	3.683253	8.521783	6.034204	0.105317	23.972425	1.532291	0.000000	0.079435	-0.249062	-1.444933	0.147519	-0.331253	-1.535241	0.130504	-0.605571	-1.535241	0.090787	-0.605571	-1.264316	0.073764	-0.507888	-1.174008	0.045389	-0.385798	-1.083700	0.567399	-2.817445	-8.036282	0.000000	0.000000	24.411912	2.657632	5.178274	25.772902	-7.758639	54.545824	65.074929	84.782622	9.910327	20.870129	17.852294	-10.323170	48.635631	49.517597	85.438862	-1.284647	13.448542
0.267857	-2.646158	-7.285633	98.700432	0.256291	0.495573	0.831334	0.074239	-2.956909	-3.341184	8.641266	0.150819	24.347688	-6.562777	0.000000	0.645317	3.724986	8.453466	5.596142	0.097671	23.424714	1.169515	0.000000	0.061405	-0.271868	-1.537511	0.114036	-0.361585	-1.633605	0.100883	-0.661020	-1.633605	0.070180	-0.661020	-1.345322	0.057021	-0.554393	-1.249228	0.035087	-0.421124	-1.153133	0.438612	-3.075426	-8.551175	0.000000	0.000000	23.633909	2.938686	5.091352	26.747224	-7.934273	51.047915	71.713968	87.122522	11.735689	22.574495	17.569080	-10.993443	46.667547	49.815999	85.335517	-4.028084	11.096238
0.285714	-2.756972	-7.327153	98.422136	0.257208	0.496037	0.832414	0.303605	-3.093515	-3.511475	8.792743	0.153462	24.550419	-5.910409	0.000000	0.522844	3.800637	8.270942	5.175190	0.090324	22.900275	0.877281	0.000000	0.040521	-0.301237	-1.605861	0.075252	-0.400646	-1.706228	0.066572	-0.732428	-1.706228	0.046311	-0.732428	-1.405129	0.037628	-0.614283	-1.304762	0.023154	-0.466616	-1.204396	0.289438	-3.407656	-8.931320	0.000000	0.000000	22.877553	3.187752	4.867227	27.807929	-7.956521	47.040602	78.734364	89.208816	13.872412	24.189800	17.294661	-11.665875	44.927655	49.831582	85.357693	-6.849676	8.610438
0.303571	-2.908044	-7.388945	98.048944	0.258377	0.496479	0.833629	0.622238	-3.270037	-3.637543	9.034400	0.157680	24.807063	-5.194904	0.000000	0.443604	3.913750	7.998711	4.783150	0.083482	22.413231	0.637597	0.000000	0.017693	-0.337489	-1.640862	0.032857	-0.448860	-1.743416	0.029068	-0.820570	-1.743416	0.020221	-0.820570	-1.435754	0.016430	-0.688207	-1.333200	0.010110	-0.522770	-1.230646	0.126378	-3.817741	-9.125981	0.000000	0.000000	22.179722	3.392745	4.468274	29.013674	-7.847583	42.713196	85.905810	90.608402	16.146652	25.714231	17.071791	-12.332240	43.505220	49.589454	85.501251	-9.500800	6.197135
0.321429	-3.083790	-7.467818	97.582734	0.259761	0.496894	0.834934	1.009177	-3.465747	-3.676116	9.330960	0.162856	25.085816	-4.469710	0.000000	0.400853	4.051128	7.712482	4.414344	0.077045	21.957318	0.378847	0.000000	-0.005741	-0.378036	-1.643226	-0.010662	-0.502787	-1.745928	-0.009433	-0.919156	-1.745928	-0.006562	-0.919156	-1.437823	-0.005331	-0.770890	-1.335121	-0.003281	-0.585577	-1.232420	-0.041010	-4.276414	-9.139132	0.000000	0.000000	21.561947	3.546583	3.889650	30.527097	-7.675789	38.742497	93.000976	90.297438	18.115848	26.973016	16.865398	-12.999712	42.273289	49.146365	85.764906	-11.798807	4.041956
